<?xml version="1.0" encoding="UTF-8"?>
<svg id="Layer_2" data-name="Layer 2" xmlns="http://www.w3.org/2000/svg" viewBox="0 0 124.18 124.18">
  <defs>
    <style>
      .cls-1 {
        fill: #3db771;
      }
    </style>
  </defs>
  <g id="Layer_1-2" data-name="Layer 1">
    <circle class="cls-1" cx="62.09" cy="62.09" r="62.09"/>
    <g>
      <ellipse cx="28.37" cy="71.2" rx="11.62" ry="11.75"/>
      <path d="m56.57,59.55c-.23.28-.48.55-.74.81-4.59,4.59-11.98,4.63-16.52.09-4.54-4.54-4.5-11.93.09-16.52.27-.27.56-.53.85-.77l22.04-22.04c.24-.29.5-.58.77-.85,4.59-4.59,11.99-4.63,16.53-.09,4.54,4.54,4.49,11.93-.1,16.52-.26.26-.53.51-.81.74l-22.12,22.12Z"/>
      <ellipse cx="95.68" cy="52.79" rx="11.75" ry="11.62"/>
      <path d="m84.03,80.99c.28-.23.55-.48.81-.74,4.59-4.59,4.63-11.98.09-16.52s-11.93-4.5-16.52.09c-.27.27-.53.56-.77.85l-22.04,22.04c-.29.24-.58.5-.85.77-4.59,4.59-4.63,11.99-.09,16.53s11.93,4.49,16.52-.1c.26-.26.51-.53.74-.81l22.12-22.12Z"/>
    </g>
  </g>
</svg>